<?xml version="1.0" encoding="utf-8"?>
<!-- Generator: Adobe Illustrator 16.0.0, SVG Export Plug-In . SVG Version: 6.00 Build 0)  -->
<!DOCTYPE svg PUBLIC "-//W3C//DTD SVG 1.1//EN" "http://www.w3.org/Graphics/SVG/1.1/DTD/svg11.dtd">
<svg version="1.1" id="Layer_1" xmlns="http://www.w3.org/2000/svg" xmlns:xlink="http://www.w3.org/1999/xlink" x="0px" y="0px"
	 width="100px" height="100px" viewBox="0 0 100 100" enable-background="new 0 0 100 100" xml:space="preserve">
<path fill="#D16C55" d="M62.2,83.547c2.639,0.455,5.411,0.729,8.303,0.799l0.775,0.019l-6.246-8.986
	c13.422-6.003,22.795-19.48,22.795-35.107c0-12.336-5.844-23.333-14.907-30.371V9.891h-0.011c-6.505-5.047-14.667-8.058-23.52-8.058
	c-21.195,0-38.438,17.243-38.438,38.438c0,14.702,8.298,27.5,20.456,33.964l4.152,7.746l-8.435,4.955h-15.78v0.791h45.109
	c4.055,3.008,7.098,4.621,12.247,7.352c1.038,0.553,2.162,1.147,3.397,1.81l1.492,0.799l-0.982-1.376
	c-0.194-0.27-3.326-4.646-6.616-8.584h21.438v-0.791H65.327C64.249,85.677,63.176,84.493,62.2,83.547z M64.281,86.937h-7.563
	c-2.619-1.955-5.682-4.509-10.016-8.322c0.546,0.036,1.093,0.065,1.646,0.079c3.643,2.129,7.871,3.681,12.56,4.616l-0.056,0.065
	C61.865,84.259,63.059,85.529,64.281,86.937z M38.133,80.573l1.595,2.903l-2.712,1.053l0.157-1.044
	C37.366,82.206,37.67,81.285,38.133,80.573z M38.668,79.909c0.794-0.801,1.919-1.305,3.507-1.882
	c0.56,0.105,1.122,0.201,1.689,0.283c-2.298,0.999-3.286,2.427-3.38,4.904L38.668,79.909z M39.161,24.436
	c0.79,0.713,1.497,1.545,2.1,2.43c-4.137-3.384-8.535-3.213-12.04-2.608l-0.61,0.105l9.752,14.029
	c-0.627-0.115-1.264-0.181-1.907-0.181c-0.082,0-0.164,0.005-0.245,0.007l0-0.005l-0.147,0.008
	c-0.179,0.007-0.356,0.018-0.532,0.034l-13.516,0.848l1.289-8.039c0.503-4.194,2.397-7.209,5.331-8.491
	C31.735,21.216,35.669,21.913,39.161,24.436z M41.459,32.296c-0.178-0.321-0.385-0.612-0.616-0.876
	c0.038,0.002,0.081,0.006,0.119,0.006c1.038,0,1.518-0.54,1.913-1.382c0.469,1.366,0.643,2.696,0.422,3.789
	c-0.197,0.978-0.688,1.73-1.466,2.245C42.24,34.844,42.118,33.493,41.459,32.296z M36.928,28.052
	c-0.583-0.489-1.385-0.683-2.462-0.59l-0.373,0.032l0.012,0.373c0,0.026,0.121,2.57,3.173,2.822
	c0.089,0.569,0.144,1.219,0.204,1.924c0.1,1.167,0.215,2.508,0.534,3.898L29.97,24.936c3.897-0.592,8.347-0.413,12.457,4.136
	c-0.011,0.028-0.022,0.057-0.033,0.084c-0.525,1.337-0.747,1.893-2.951,1.179c-0.475-0.235-0.986-0.376-1.508-0.408
	C37.751,29.137,37.457,28.499,36.928,28.052z M37.108,29.876c-1.507-0.207-1.99-1.117-2.144-1.647c0.636,0,1.114,0.141,1.454,0.429
	C36.747,28.932,36.96,29.35,37.108,29.876z M48.568,77.908c-1.073-0.636-2.099-1.317-3.064-2.055
	c-2.598-1.989-4.709-4.31-6.281-6.865c6.405,3.855,14.574,6.195,23.285,6.572c-4.087,1.524-8.506,2.359-13.118,2.359
	C49.115,77.92,48.841,77.916,48.568,77.908z M35.196,58.903c0.165,2.688,0.805,5.289,1.89,7.729c-1.456-1.057-2.791-2.2-3.982-3.43
	c-2.745-2.834-4.612-5.973-5.548-9.26C29.169,56.619,31.955,58.509,35.196,58.903z M41.877,69.57
	c3.208,0.789,6.649,1.186,10.321,1.186c2.628,0,5.375-0.205,8.236-0.609l3.241,4.664C55.666,74.625,48.078,72.761,41.877,69.57z
	 M38.856,67.837c-0.152-0.097-0.305-0.193-0.453-0.292c-1.39-2.672-2.212-5.565-2.413-8.574c0.154,0.007,0.309,0.011,0.465,0.011
	c5.063,0,9.384-3.711,10.233-8.612l13.237,19.047C51.963,70.492,44.929,69.965,38.856,67.837z M36.456,58.192
	c-5.292,0-9.596-4.305-9.596-9.596c0-4.992,3.833-9.104,8.71-9.553l0.536-0.034C36.221,39.004,36.337,39,36.456,39
	c0.874,0,1.738,0.12,2.573,0.351l6.989,10.053C45.606,54.337,41.418,58.192,36.456,58.192z M21.888,39.901l9.998-0.626
	c-3.439,1.692-5.812,5.23-5.814,9.312l0,0c0,0.001,0,0.003,0,0.004c0,0.001,0,0.003,0,0.005c0,0.002,0,0.006,0,0.009
	c-0.116,5.424,2.121,10.66,6.467,15.146c0.931,0.961,1.948,1.87,3.038,2.728c-6.399-3.045-11.59-8.088-15.526-15.115L21.888,39.901z
	 M37.939,68.355c1.668,3.049,4.058,5.808,7.085,8.125c0.621,0.477,1.272,0.925,1.938,1.358c-5.373-0.343-10.443-1.817-14.972-4.189
	l-8.375-15.623C27.557,62.824,32.341,66.268,37.939,68.355z M69.739,83.533c-7.56-0.277-14.275-1.935-19.757-4.831
	c5.067-0.078,9.899-1.138,14.314-3.002L69.739,83.533z M11.741,40.271c0-20.759,16.889-37.648,37.649-37.648
	c0.611,0,1.22,0.017,1.824,0.045v4.46h-1.285v0.79h1.285v11.031h0.789V7.917h1.287v-0.79h-1.287V2.714
	c2.114,0.146,4.181,0.467,6.183,0.949v18.386H56.9v0.789h1.285v5.251h0.79v-5.251h1.284v-0.789h-1.284V3.86
	c2.141,0.565,4.208,1.314,6.183,2.229v8.298h-1.285v0.789h1.285v3.773h0.789v-3.773h1.287v-0.789h-1.287V6.465
	c2.189,1.077,4.258,2.36,6.185,3.823v11.761h-1.286v0.789h1.286v21.815h0.788V22.838h1.286v-0.789H72.92V10.905
	c2.297,1.844,4.373,3.95,6.184,6.274v12.195h-1.286v0.789h1.286v7.913h0.788v-7.913h1.287v-0.789h-1.287V18.23
	c4.493,6.2,7.146,13.816,7.146,22.041c0,15.36-9.245,28.599-22.464,34.448L39.631,38.835c-1.012-2.157-1.2-4.351-1.363-6.288
	c-0.056-0.652-0.107-1.26-0.186-1.814c1.08,0.137,2.085,0.855,2.686,1.944c0.712,1.293,0.674,2.799-0.103,4.031l-0.6,0.954
	l1.063-0.371c1.601-0.555,2.619-1.697,2.942-3.301c0.664-3.286-1.715-7.744-4.397-10.156l-0.033-0.025
	c-3.724-2.698-7.957-3.431-11.32-1.96c-3.2,1.399-5.26,4.638-5.797,9.106l-3.295,20.556l11.497,21.447
	C19.392,66.461,11.741,54.243,11.741,40.271z M40.757,77.73c-2.242,0.933-3.529,1.979-4.151,4.531l-3.965-7.399
	C35.201,76.108,37.919,77.077,40.757,77.73z M35.934,82.678l1.008,1.88l-6.13,2.379h-2.128L35.934,82.678z M32.993,86.937
	l7.119-2.762l1.37,2.492l-0.161-1.859c-0.316-3.673,0.655-5.162,4.132-6.243c4.275,3.778,7.356,6.377,9.957,8.372H32.993z
	 M70.954,95.383c-0.658-0.351-1.284-0.683-1.882-1c-4.731-2.509-7.672-4.069-11.275-6.655h7.161
	C67.308,90.507,69.662,93.629,70.954,95.383z"/>
</svg>
